<?xml version="1.0" standalone="no"?>
<!DOCTYPE svg PUBLIC "-//W3C//DTD SVG 20010904//EN"
 "http://www.w3.org/TR/2001/REC-SVG-20010904/DTD/svg10.dtd">
<svg version="1.0" xmlns="http://www.w3.org/2000/svg"
 width="315.000000pt" height="315.000000pt" viewBox="0 0 315.000000 315.000000"
 preserveAspectRatio="xMidYMid meet">
<metadata>
Created by potrace 1.14, written by Peter Selinger 2001-2017
</metadata>
<g transform="translate(0.000000,315.000000) scale(0.100000,-0.100000)"
fill="#000000" stroke="none">
<path d="M2090 2326 c-168 -36 -302 -166 -353 -341 -22 -74 -22 -1171 -1
-1253 44 -169 179 -296 356 -336 76 -18 340 -15 408 3 156 43 286 173 331 331
15 53 21 1118 7 1209 -16 100 -80 218 -153 284 -32 28 -101 67 -158 89 -44 18
-78 21 -217 23 -98 2 -187 -2 -220 -9z m317 -177 c91 -29 163 -101 193 -194
18 -54 22 -1093 5 -1171 -15 -64 -45 -114 -97 -158 -58 -50 -125 -70 -233 -70
-76 0 -98 5 -146 27 -81 39 -145 108 -167 180 -4 12 -8 271 -9 576 -4 614 -3
620 60 703 67 87 155 125 285 122 39 -1 88 -8 109 -15z"/>
<path d="M330 1361 l0 -951 115 0 115 0 0 364 0 363 253 1 c232 0 257 2 316
22 153 51 269 173 310 327 18 65 15 416 -4 477 -47 153 -144 261 -289 320 -48
20 -73 21 -433 24 l-383 3 0 -950z m676 764 c67 -21 123 -62 161 -119 48 -71
56 -112 55 -298 0 -156 -2 -171 -25 -221 -39 -85 -129 -156 -217 -172 -25 -4
-296 -9 -392 -6 l-28 1 0 415 0 415 198 0 c149 0 211 -4 248 -15z"/>
</g>
</svg>
